<svg xmlns="http://www.w3.org/2000/svg" width="53pt" height="53pt" version="1.0" viewBox="0 0 53 53"><g style="fill:#fff;fill-opacity:1"><path d="M3207 6294c-1-1-32-5-69-8-70-7-112-14-138-21-8-2-31-7-50-10-56-9-292-72-356-95-422-152-761-366-1070-674-306-306-521-646-664-1051-31-87-87-282-96-330-2-16-11-61-19-100-30-157-40-274-40-505 0-224 5-288 41-515 10-68 71-295 105-395 187-549 545-1031 1024-1377 274-198 610-354 944-438 116-29 315-63 391-67l55-3 1 233c1 229 1 232-20 233-26 1-40 3-186 30-509 94-986 374-1344 789-50 57-164 219-215 304-140 233-236 485-290 761-18 91-24 134-36 250-5 47-6 337-1 380 2 17 6 62 10 100 4 39 9 77 11 85s7 31 10 50 13 64 21 100c9 36 18 76 20 88 6 32 71 227 92 277 283 673 845 1177 1527 1369 141 39 207 52 351 71l51 6v469l-29-2c-16-1-30-3-31-4zM3737 6293c-2-4-4-110-4-235v-228l23-1c13-1 27-2 32-3 4-1 32-6 62-10s62-9 70-11 31-6 50-10c19-3 62-13 95-21 33-9 67-17 75-19 44-9 277-98 355-135 413-198 779-531 1008-918 40-67 153-299 172-352 85-236 127-420 150-650 6-58 6-334 1-385-10-96-20-181-21-185-1-3-5-25-9-50-16-98-77-313-119-421-267-691-836-1212-1542-1412-102-29-177-45-335-71-14-3-34-5-46-5-21-1-21-4-21-236l1-236 50 6c108 12 134 16 216 31 316 57 624 170 900 331 98 57 261 166 290 193 9 8 31 26 49 40 69 52 109 88 227 205 244 242 421 489 561 785 94 198 185 467 209 616 3 21 8 42 10 45 4 7 24 126 30 184 3 22 9 74 13 115 9 78 7 507-3 549-3 13-8 49-12 80-3 31-8 65-10 76s-11 55-19 98c-29 152-106 410-150 504-8 17-15 34-15 37 0 11-73 159-129 261-53 98-144 244-174 281-9 10-32 42-53 69-282 380-720 717-1169 897-184 74-284 105-480 147-98 21-141 28-213 36-26 3-64 8-84 11-20 2-38 1-41-3z" style="fill:#fff;fill-opacity:1" transform="matrix(.00912 0 0 -.00912 -5.335 58.247)"/><path d="M3378 5364c-2-1-34-5-73-9-296-28-595-138-861-316-39-26-78-54-85-61-8-7-48-42-89-78-81-71-96-85-175-175-219-248-367-556-430-894-8-46-15-86-15-90s106-7 237-7l236 1 4 25c25 175 131 415 257 584 63 83 198 219 266 269 214 153 437 245 665 275 65 9 306 9 370 0 458-63 862-353 1064-763 59-122 121-298 121-349 0-11 4-26 8-32 11-17 472-15 472 2 0 7-4 35-10 61-5 26-12 59-14 73-25 149-126 409-224 575-174 296-451 555-757 708-211 106-391 160-635 193-52 7-327 14-332 8z" style="fill:#fff;fill-opacity:1" transform="matrix(.00912 0 0 -.00912 -5.335 58.247)"/><path d="M3477 4434c-1-1-35-4-76-8-153-13-301-68-437-164-338-239-480-667-349-1057 79-235 247-428 472-539 86-43 162-69 233-81 19-3 46-8 60-10 67-14 274-4 323 14 12 5 24 9 27 9 49 1 201 68 291 128 494 332 551 1049 115 1456-103 96-280 194-406 224-19 4-37 8-40 9-23 6-208 23-213 19zm158-489c156-45 286-186 319-348 59-283-148-549-438-562-169-7-345 93-424 244-195 367 144 782 543 666z" style="fill:#fff;fill-opacity:1" transform="matrix(.00912 0 0 -.00912 -5.335 58.247)"/><path d="M1655 3231c12-81 26-149 41-201 8-30 16-62 18-70 2-9 21-60 41-115 119-318 314-586 590-810 50-41 178-128 225-154 63-34 199-101 205-101 4 0 21-7 38-15 80-37 290-95 392-109 119-16 172-20 290-20 390 1 717 99 1039 312 433 286 736 765 811 1278l5 41h-235c-231 0-236-1-240-21-3-12-9-42-15-68-35-165-154-413-256-538-176-212-358-348-589-441-91-36-134-48-301-84-16-4-96-8-179-10-299-8-555 65-804 229-267 175-458 426-561 736-15 47-31 103-35 125-13 79 10 72-251 72h-235z" style="fill:#fff;fill-opacity:1" transform="matrix(.00912 0 0 -.00912 -5.335 58.247)"/></g></svg>