<svg version="1.1" viewBox="0 0 184 30" xml:space="preserve" xmlns="http://www.w3.org/2000/svg" aria-hidden="true" focusable="false" width="184" height="30">
	<g transform="translate(20.398 1)">
		<path d="m5.3 3.8c-0.6 0.4-0.9 1-0.9 1.7 0 0.8 0.3 1.4 0.9 1.8s1.9 0.9 3.8 1.3c1.9 0.5 3.4 1.1 4.4 2s1.5 2.1 1.5 3.8-0.6 3-1.9 4.1c-1.3 1-2.9 1.6-4.9 1.6-3 0-5.6-1-7.9-3.1l2-2.4c1.9 1.7 3.9 2.5 6 2.5 1 0 1.9-0.2 2.5-0.7 0.6-0.4 0.9-1 0.9-1.8 0-0.7-0.3-1.3-0.9-1.7s-1.6-0.8-3-1.1-2.5-0.6-3.2-0.9-1.4-0.6-1.9-1.1c-1.1-0.9-1.7-2.2-1.7-3.9s0.6-3.1 1.9-4.1 2.9-1.4 4.7-1.4c1.2 0 2.4 0.2 3.6 0.6s2.2 1 3.1 1.7l-1.7 2.4c-0.6-0.5-1.3-0.9-2.3-1.3-1-0.3-1.9-0.5-2.8-0.5s-1.6 0.1-2.2 0.5zm26 3.3c1.4 1.3 2.1 3.1 2.1 5.4 0 2.2-0.7 4.1-2.1 5.5s-3 2.1-4.8 2.1-3.5-0.8-4.9-2.4v7.5h-3v-19.8h3v2.5c1.2-1.8 2.8-2.8 4.7-2.8s3.6 0.6 5 2zm-8.5 8.8c0.8 0.9 1.8 1.3 3 1.3s2.2-0.4 3.1-1.3 1.3-2 1.3-3.4-0.4-2.5-1.3-3.5-1.9-1.3-3.1-1.3-2.2 0.5-3.1 1.4c-0.8 0.9-1.3 2.1-1.3 3.4 0.2 1.4 0.6 2.6 1.4 3.4zm25.8 3.8h-2.8v-1.9c-1.2 1.4-2.8 2.2-4.8 2.2-1.5 0-2.8-0.4-3.7-1.3s-1.5-2-1.5-3.4 0.5-2.5 1.6-3.2 2.5-1.1 4.3-1.1h3.9v-0.5c0-1.9-1.1-2.9-3.2-2.9-1.3 0-2.7 0.5-4.2 1.5l-1.4-1.9c1.8-1.4 3.8-2.1 6-2.1 1.7 0 3.1 0.4 4.2 1.3s1.6 2.2 1.6 4.1v9.2zm-3.1-5.4v-1.2h-3.4c-2.2 0-3.3 0.7-3.3 2.1 0 0.7 0.3 1.2 0.8 1.6s1.3 0.6 2.3 0.6 1.8-0.3 2.5-0.8c0.8-0.5 1.1-1.3 1.1-2.3zm13.7 5.8c-2 0-3.7-0.7-5.2-2.1s-2.2-3.2-2.2-5.4 0.8-4 2.3-5.4 3.4-2.1 5.5-2.1c2.2 0 4 0.8 5.5 2.3l-1.8 2.2c-1.3-1.1-2.5-1.6-3.8-1.6s-2.4 0.4-3.3 1.3-1.4 1.9-1.4 3.3 0.5 2.5 1.4 3.4 2.1 1.4 3.4 1.4c1.4 0 2.6-0.6 3.8-1.9l1.8 2c-1.6 1.7-3.7 2.6-6 2.6zm22.8-6.3h-11.3c0.1 1.1 0.6 1.9 1.4 2.5 0.9 0.6 1.9 1 3 1 1.8 0 3.2-0.6 4.1-1.7l1.7 1.9c-1.6 1.6-3.6 2.4-6.1 2.4-2 0-3.8-0.7-5.2-2-1.4-1.4-2.1-3.2-2.1-5.5s0.7-4.1 2.2-5.4 3.2-2 5.1-2 3.6 0.6 5 1.8 2.1 2.8 2.1 4.9v2.1h0.1zm-11.4-2.4h8.3c0-1.2-0.4-2.2-1.1-2.8-0.8-0.7-1.7-1-2.8-1s-2.1 0.3-3 1-1.4 1.7-1.4 2.8zm18.3-7.3v1.2h3.8v2.5h-3.8v12.1h-3v-12.1h-1.8v-2.5h1.8v-1.1c0-1.5 0.5-2.7 1.4-3.6s2-1.4 3.3-1.4 2.5 0.5 3.5 1.4l-1.3 2.2c-0.6-0.6-1.2-1-1.9-1s-1.2 0.2-1.5 0.6-0.5 0.9-0.5 1.7zm9.8 15.6h-3v-14.5h3v14.5zm-3.4-18.6c0-0.5 0.2-1 0.6-1.4s0.8-0.6 1.4-0.6c0.5 0 1 0.2 1.4 0.6s0.6 0.8 0.6 1.4-0.2 1-0.6 1.4-0.8 0.6-1.4 0.6c-0.5 0-1-0.2-1.4-0.6s-0.6-0.9-0.6-1.4zm10.9 10.8v7.9h-3v-14.5h3v2.6c0.5-0.9 1.2-1.6 2-2.1s1.8-0.8 2.8-0.8c1.6 0 3 0.5 4 1.5s1.5 2.4 1.5 4.3v8.9h-3v-8c0-2.7-1.1-4-3.3-4-1.1 0-2 0.4-2.7 1.1-0.9 0.8-1.3 1.8-1.3 3.1zm15.6 6.1c-1.4-1.4-2-3.2-2-5.5s0.7-4.1 2.1-5.4 3.1-2 5-2 3.5 0.8 4.7 2.5v-8h3v20.2h-3v-2.2c-1.1 1.6-2.8 2.4-4.9 2.4-1.9 0.1-3.5-0.7-4.9-2zm2.4-2.1c0.9 0.9 1.9 1.3 3.1 1.3s2.2-0.4 3-1.3 1.3-2 1.3-3.4-0.4-2.5-1.3-3.5c-0.8-0.9-1.9-1.4-3.1-1.4s-2.3 0.5-3.1 1.4c-0.9 0.9-1.3 2.1-1.3 3.5s0.5 2.7 1.4 3.4zm28.2-2.1h-11.3c0.1 1.1 0.6 1.9 1.4 2.5 0.9 0.6 1.9 1 3 1 1.8 0 3.2-0.6 4.1-1.7l1.7 1.9c-1.6 1.6-3.6 2.4-6.1 2.4-2 0-3.8-0.7-5.2-2-1.4-1.4-2.1-3.2-2.1-5.5s0.7-4.1 2.2-5.4 3.2-2 5.1-2 3.6 0.6 5 1.8 2.1 2.8 2.1 4.9v2.1h0.1zm-11.3-2.4h8.3c0-1.2-0.4-2.2-1.1-2.8-0.8-0.7-1.7-1-2.8-1s-2.1 0.3-3 1c-0.9 0.8-1.4 1.7-1.4 2.8zm22.3-3.2c-1.5 0-2.6 0.5-3.4 1.5s-1.1 2.3-1.1 4v6.2h-3v-14.5h3v2.9c0.5-0.9 1.2-1.7 2-2.2 0.8-0.6 1.7-0.9 2.7-0.9v3.1h-0.2v-0.1z"/>
	</g>
	<path d="M16.5,6.3L10.4,17l4.6,7.9L16.5,6.3z"/>
	<path d="M15.7,5.6L9.6,16.3H0.1L15.7,5.6z"/>
</svg>
